{
 "cells": [
  {
   "cell_type": "code",
   "execution_count": 2,
   "metadata": {},
   "outputs": [
    {
     "name": "stdout",
     "output_type": "stream",
     "text": [
      "Total processed: 3259\n",
      "Total failed: 20\n",
      "\n",
      "Tasks processed:\n",
      "  bookshare: 56\n",
      "  dailyroutine: 252\n",
      "  generalsocialcommunicationinteraction: 1010\n",
      "  generalsocialinteraction: 1\n",
      "  motorplay: 497\n",
      "  other: 283\n",
      "  socialroutine: 158\n",
      "  specialoccasion: 135\n",
      "  toyplay: 564\n",
      "  unknown: 303\n",
      "\n",
      "Sessions:\n",
      "  Session 01: 1677\n",
      "  Session 02: 1582\n",
      "\n",
      "Failed videos by error type:\n",
      "  Audio extraction failed: ffmpeg version N-121159-g0bd5a7d371-20250921 Copyright (c) 2000-2025 the FFmpeg developers\n",
      "  built with gcc 15.2.0 (crosstool-NG 1.28.0.1_403899e)\n",
      "  configuration: --prefix=/ffbuild/prefix --pkg-config-flags=--static --pkg-config=pkg-config --cross-prefix=x86_64-ffbuild-linux-gnu- --arch=x86_64 --target-os=linux --enable-gpl --enable-version3 --disable-debug --enable-iconv --enable-zlib --enable-libxml2 --enable-libsoxr --enable-openssl --enable-libvmaf --enable-fontconfig --enable-libharfbuzz --enable-libfreetype --enable-libfribidi --enable-vulkan --enable-libshaderc --enable-libvorbis --enable-libxcb --enable-xlib --enable-libpulse --enable-opencl --enable-gmp --enable-lzma --enable-amf --enable-libaom --enable-libaribb24 --enable-avisynth --enable-chromaprint --enable-libdav1d --enable-libdavs2 --enable-libdvdread --enable-libdvdnav --disable-libfdk-aac --enable-ffnvcodec --enable-cuda-llvm --enable-frei0r --enable-libgme --enable-libkvazaar --enable-libaribcaption --enable-libass --enable-libbluray --enable-libjxl --enable-libmp3lame --enable-libopus --enable-libplacebo --enable-librist --enable-libssh --enable-libtheora --enable-libvpx --enable-libwebp --enable-libzmq --enable-lv2 --enable-libvpl --enable-openal --enable-liboapv --enable-libopencore-amrnb --enable-libopencore-amrwb --enable-libopenh264 --enable-libopenjpeg --enable-libopenmpt --enable-librav1e --enable-librubberband --disable-schannel --enable-sdl2 --enable-libsnappy --enable-libsrt --enable-libsvtav1 --enable-libtwolame --enable-libuavs3d --enable-libdrm --enable-vaapi --enable-libvidstab --enable-libvvenc --enable-whisper --enable-libx264 --enable-libx265 --enable-libxavs2 --enable-libxvid --enable-libzimg --enable-libzvbi --extra-cflags=-DLIBTWOLAME_STATIC --extra-cxxflags= --extra-libs='-lgomp -ldl' --extra-ldflags=-pthread --extra-ldexeflags=-pie --cc=x86_64-ffbuild-linux-gnu-gcc --cxx=x86_64-ffbuild-linux-gnu-g++ --ar=x86_64-ffbuild-linux-gnu-gcc-ar --ranlib=x86_64-ffbuild-linux-gnu-gcc-ranlib --nm=x86_64-ffbuild-linux-gnu-gcc-nm --extra-version=20250921\n",
      "  libavutil      60. 13.100 / 60. 13.100\n",
      "  libavcodec     62. 15.100 / 62. 15.100\n",
      "  libavformat    62.  6.100 / 62.  6.100\n",
      "  libavdevice    62.  2.100 / 62.  2.100\n",
      "  libavfilter    11.  9.100 / 11.  9.100\n",
      "  libswscale      9.  3.100 /  9.  3.100\n",
      "  libswresample   6.  2.100 /  6.  2.100\n",
      "Input #0, mov,mp4,m4a,3gp,3g2,mj2, from '/home/aparnabg/orcd/scratch/bidsdata/final_bids-dataset/derivatives/preprocessed/sub-B1S3L8Q7Y6/ses-02/beh/sub-B1S3L8Q7Y6_ses-02_task-motorplay_run-03_desc-processed_beh.mp4':\n",
      "  Metadata:\n",
      "    major_brand     : isom\n",
      "    minor_version   : 512\n",
      "    compatible_brands: isomiso2avc1mp41\n",
      "    encoder         : Lavf62.6.100\n",
      "  Duration: 00:00:01.87, start: 0.000000, bitrate: 2765 kb/s\n",
      "  Stream #0:0[0x1](und): Video: h264 (High) (avc1 / 0x31637661), yuvj420p(pc, smpte170m/smpte432/bt709, progressive), 540x720, 2758 kb/s, 30 fps, 30 tbr, 15360 tbn (default)\n",
      "    Metadata:\n",
      "      handler_name    : Core Media Video\n",
      "      vendor_id       : [0][0][0][0]\n",
      "      encoder         : Lavc62.15.100 libx264\n",
      "Output #0, wav, to '/home/aparnabg/orcd/scratch/bidsdata/final_bids-dataset/derivatives/preprocessed/sub-B1S3L8Q7Y6/ses-02/beh/sub-B1S3L8Q7Y6_ses-02_task-motorplay_run-03_audio.wav':\n",
      "[out#0/wav @ 0x5629c3cb82c0] Output file does not contain any stream\n",
      "Error opening output file /home/aparnabg/orcd/scratch/bidsdata/final_bids-dataset/derivatives/preprocessed/sub-B1S3L8Q7Y6/ses-02/beh/sub-B1S3L8Q7Y6_ses-02_task-motorplay_run-03_audio.wav.\n",
      "Error opening output files: Invalid argument\n",
      ": 1\n",
      "  Audio extraction failed: ffmpeg version N-121159-g0bd5a7d371-20250921 Copyright (c) 2000-2025 the FFmpeg developers\n",
      "  built with gcc 15.2.0 (crosstool-NG 1.28.0.1_403899e)\n",
      "  configuration: --prefix=/ffbuild/prefix --pkg-config-flags=--static --pkg-config=pkg-config --cross-prefix=x86_64-ffbuild-linux-gnu- --arch=x86_64 --target-os=linux --enable-gpl --enable-version3 --disable-debug --enable-iconv --enable-zlib --enable-libxml2 --enable-libsoxr --enable-openssl --enable-libvmaf --enable-fontconfig --enable-libharfbuzz --enable-libfreetype --enable-libfribidi --enable-vulkan --enable-libshaderc --enable-libvorbis --enable-libxcb --enable-xlib --enable-libpulse --enable-opencl --enable-gmp --enable-lzma --enable-amf --enable-libaom --enable-libaribb24 --enable-avisynth --enable-chromaprint --enable-libdav1d --enable-libdavs2 --enable-libdvdread --enable-libdvdnav --disable-libfdk-aac --enable-ffnvcodec --enable-cuda-llvm --enable-frei0r --enable-libgme --enable-libkvazaar --enable-libaribcaption --enable-libass --enable-libbluray --enable-libjxl --enable-libmp3lame --enable-libopus --enable-libplacebo --enable-librist --enable-libssh --enable-libtheora --enable-libvpx --enable-libwebp --enable-libzmq --enable-lv2 --enable-libvpl --enable-openal --enable-liboapv --enable-libopencore-amrnb --enable-libopencore-amrwb --enable-libopenh264 --enable-libopenjpeg --enable-libopenmpt --enable-librav1e --enable-librubberband --disable-schannel --enable-sdl2 --enable-libsnappy --enable-libsrt --enable-libsvtav1 --enable-libtwolame --enable-libuavs3d --enable-libdrm --enable-vaapi --enable-libvidstab --enable-libvvenc --enable-whisper --enable-libx264 --enable-libx265 --enable-libxavs2 --enable-libxvid --enable-libzimg --enable-libzvbi --extra-cflags=-DLIBTWOLAME_STATIC --extra-cxxflags= --extra-libs='-lgomp -ldl' --extra-ldflags=-pthread --extra-ldexeflags=-pie --cc=x86_64-ffbuild-linux-gnu-gcc --cxx=x86_64-ffbuild-linux-gnu-g++ --ar=x86_64-ffbuild-linux-gnu-gcc-ar --ranlib=x86_64-ffbuild-linux-gnu-gcc-ranlib --nm=x86_64-ffbuild-linux-gnu-gcc-nm --extra-version=20250921\n",
      "  libavutil      60. 13.100 / 60. 13.100\n",
      "  libavcodec     62. 15.100 / 62. 15.100\n",
      "  libavformat    62.  6.100 / 62.  6.100\n",
      "  libavdevice    62.  2.100 / 62.  2.100\n",
      "  libavfilter    11.  9.100 / 11.  9.100\n",
      "  libswscale      9.  3.100 /  9.  3.100\n",
      "  libswresample   6.  2.100 /  6.  2.100\n",
      "Input #0, mov,mp4,m4a,3gp,3g2,mj2, from '/home/aparnabg/orcd/scratch/bidsdata/final_bids-dataset/derivatives/preprocessed/sub-I8T4E2J3M6/ses-01/beh/sub-I8T4E2J3M6_ses-01_task-unknown_run-02_desc-processed_beh.mp4':\n",
      "  Metadata:\n",
      "    major_brand     : isom\n",
      "    minor_version   : 512\n",
      "    compatible_brands: isomiso2avc1mp41\n",
      "    encoder         : Lavf62.6.100\n",
      "  Duration: 00:00:04.23, start: 0.000000, bitrate: 1096 kb/s\n",
      "  Stream #0:0[0x1](und): Video: h264 (High) (avc1 / 0x31637661), yuvj420p(pc, progressive), 406x720, 1092 kb/s, 30 fps, 30 tbr, 15360 tbn (default)\n",
      "    Metadata:\n",
      "      handler_name    : Core Media Video\n",
      "      vendor_id       : [0][0][0][0]\n",
      "      encoder         : Lavc62.15.100 libx264\n",
      "Output #0, wav, to '/home/aparnabg/orcd/scratch/bidsdata/final_bids-dataset/derivatives/preprocessed/sub-I8T4E2J3M6/ses-01/beh/sub-I8T4E2J3M6_ses-01_task-unknown_run-02_audio.wav':\n",
      "[out#0/wav @ 0x55dac7e00900] Output file does not contain any stream\n",
      "Error opening output file /home/aparnabg/orcd/scratch/bidsdata/final_bids-dataset/derivatives/preprocessed/sub-I8T4E2J3M6/ses-01/beh/sub-I8T4E2J3M6_ses-01_task-unknown_run-02_audio.wav.\n",
      "Error opening output files: Invalid argument\n",
      ": 1\n",
      "  Audio extraction failed: ffmpeg version N-121159-g0bd5a7d371-20250921 Copyright (c) 2000-2025 the FFmpeg developers\n",
      "  built with gcc 15.2.0 (crosstool-NG 1.28.0.1_403899e)\n",
      "  configuration: --prefix=/ffbuild/prefix --pkg-config-flags=--static --pkg-config=pkg-config --cross-prefix=x86_64-ffbuild-linux-gnu- --arch=x86_64 --target-os=linux --enable-gpl --enable-version3 --disable-debug --enable-iconv --enable-zlib --enable-libxml2 --enable-libsoxr --enable-openssl --enable-libvmaf --enable-fontconfig --enable-libharfbuzz --enable-libfreetype --enable-libfribidi --enable-vulkan --enable-libshaderc --enable-libvorbis --enable-libxcb --enable-xlib --enable-libpulse --enable-opencl --enable-gmp --enable-lzma --enable-amf --enable-libaom --enable-libaribb24 --enable-avisynth --enable-chromaprint --enable-libdav1d --enable-libdavs2 --enable-libdvdread --enable-libdvdnav --disable-libfdk-aac --enable-ffnvcodec --enable-cuda-llvm --enable-frei0r --enable-libgme --enable-libkvazaar --enable-libaribcaption --enable-libass --enable-libbluray --enable-libjxl --enable-libmp3lame --enable-libopus --enable-libplacebo --enable-librist --enable-libssh --enable-libtheora --enable-libvpx --enable-libwebp --enable-libzmq --enable-lv2 --enable-libvpl --enable-openal --enable-liboapv --enable-libopencore-amrnb --enable-libopencore-amrwb --enable-libopenh264 --enable-libopenjpeg --enable-libopenmpt --enable-librav1e --enable-librubberband --disable-schannel --enable-sdl2 --enable-libsnappy --enable-libsrt --enable-libsvtav1 --enable-libtwolame --enable-libuavs3d --enable-libdrm --enable-vaapi --enable-libvidstab --enable-libvvenc --enable-whisper --enable-libx264 --enable-libx265 --enable-libxavs2 --enable-libxvid --enable-libzimg --enable-libzvbi --extra-cflags=-DLIBTWOLAME_STATIC --extra-cxxflags= --extra-libs='-lgomp -ldl' --extra-ldflags=-pthread --extra-ldexeflags=-pie --cc=x86_64-ffbuild-linux-gnu-gcc --cxx=x86_64-ffbuild-linux-gnu-g++ --ar=x86_64-ffbuild-linux-gnu-gcc-ar --ranlib=x86_64-ffbuild-linux-gnu-gcc-ranlib --nm=x86_64-ffbuild-linux-gnu-gcc-nm --extra-version=20250921\n",
      "  libavutil      60. 13.100 / 60. 13.100\n",
      "  libavcodec     62. 15.100 / 62. 15.100\n",
      "  libavformat    62.  6.100 / 62.  6.100\n",
      "  libavdevice    62.  2.100 / 62.  2.100\n",
      "  libavfilter    11.  9.100 / 11.  9.100\n",
      "  libswscale      9.  3.100 /  9.  3.100\n",
      "  libswresample   6.  2.100 /  6.  2.100\n",
      "Input #0, mov,mp4,m4a,3gp,3g2,mj2, from '/home/aparnabg/orcd/scratch/bidsdata/final_bids-dataset/derivatives/preprocessed/sub-L5Q0Z1W8S2/ses-01/beh/sub-L5Q0Z1W8S2_ses-01_task-generalsocialcommunicationinteraction_run-01_desc-processed_beh.mp4':\n",
      "  Metadata:\n",
      "    major_brand     : isom\n",
      "    minor_version   : 512\n",
      "    compatible_brands: isomiso2avc1mp41\n",
      "    title           : 10158604828739603\n",
      "    encoder         : Lavf62.6.100\n",
      "  Duration: 00:00:07.90, start: 0.000000, bitrate: 984 kb/s\n",
      "  Stream #0:0[0x1](und): Video: h264 (High) (avc1 / 0x31637661), yuv420p(tv, smpte170m/bt470bg/smpte170m, progressive), 720x720, 981 kb/s, 30 fps, 30 tbr, 15360 tbn (default)\n",
      "    Metadata:\n",
      "      handler_name    : VideoHandler\n",
      "      vendor_id       : [0][0][0][0]\n",
      "      encoder         : Lavc62.15.100 libx264\n",
      "Output #0, wav, to '/home/aparnabg/orcd/scratch/bidsdata/final_bids-dataset/derivatives/preprocessed/sub-L5Q0Z1W8S2/ses-01/beh/sub-L5Q0Z1W8S2_ses-01_task-generalsocialcommunicationinteraction_run-01_audio.wav':\n",
      "[out#0/wav @ 0x555e1335df40] Output file does not contain any stream\n",
      "Error opening output file /home/aparnabg/orcd/scratch/bidsdata/final_bids-dataset/derivatives/preprocessed/sub-L5Q0Z1W8S2/ses-01/beh/sub-L5Q0Z1W8S2_ses-01_task-generalsocialcommunicationinteraction_run-01_audio.wav.\n",
      "Error opening output files: Invalid argument\n",
      ": 1\n",
      "  Audio extraction failed: ffmpeg version N-121159-g0bd5a7d371-20250921 Copyright (c) 2000-2025 the FFmpeg developers\n",
      "  built with gcc 15.2.0 (crosstool-NG 1.28.0.1_403899e)\n",
      "  configuration: --prefix=/ffbuild/prefix --pkg-config-flags=--static --pkg-config=pkg-config --cross-prefix=x86_64-ffbuild-linux-gnu- --arch=x86_64 --target-os=linux --enable-gpl --enable-version3 --disable-debug --enable-iconv --enable-zlib --enable-libxml2 --enable-libsoxr --enable-openssl --enable-libvmaf --enable-fontconfig --enable-libharfbuzz --enable-libfreetype --enable-libfribidi --enable-vulkan --enable-libshaderc --enable-libvorbis --enable-libxcb --enable-xlib --enable-libpulse --enable-opencl --enable-gmp --enable-lzma --enable-amf --enable-libaom --enable-libaribb24 --enable-avisynth --enable-chromaprint --enable-libdav1d --enable-libdavs2 --enable-libdvdread --enable-libdvdnav --disable-libfdk-aac --enable-ffnvcodec --enable-cuda-llvm --enable-frei0r --enable-libgme --enable-libkvazaar --enable-libaribcaption --enable-libass --enable-libbluray --enable-libjxl --enable-libmp3lame --enable-libopus --enable-libplacebo --enable-librist --enable-libssh --enable-libtheora --enable-libvpx --enable-libwebp --enable-libzmq --enable-lv2 --enable-libvpl --enable-openal --enable-liboapv --enable-libopencore-amrnb --enable-libopencore-amrwb --enable-libopenh264 --enable-libopenjpeg --enable-libopenmpt --enable-librav1e --enable-librubberband --disable-schannel --enable-sdl2 --enable-libsnappy --enable-libsrt --enable-libsvtav1 --enable-libtwolame --enable-libuavs3d --enable-libdrm --enable-vaapi --enable-libvidstab --enable-libvvenc --enable-whisper --enable-libx264 --enable-libx265 --enable-libxavs2 --enable-libxvid --enable-libzimg --enable-libzvbi --extra-cflags=-DLIBTWOLAME_STATIC --extra-cxxflags= --extra-libs='-lgomp -ldl' --extra-ldflags=-pthread --extra-ldexeflags=-pie --cc=x86_64-ffbuild-linux-gnu-gcc --cxx=x86_64-ffbuild-linux-gnu-g++ --ar=x86_64-ffbuild-linux-gnu-gcc-ar --ranlib=x86_64-ffbuild-linux-gnu-gcc-ranlib --nm=x86_64-ffbuild-linux-gnu-gcc-nm --extra-version=20250921\n",
      "  libavutil      60. 13.100 / 60. 13.100\n",
      "  libavcodec     62. 15.100 / 62. 15.100\n",
      "  libavformat    62.  6.100 / 62.  6.100\n",
      "  libavdevice    62.  2.100 / 62.  2.100\n",
      "  libavfilter    11.  9.100 / 11.  9.100\n",
      "  libswscale      9.  3.100 /  9.  3.100\n",
      "  libswresample   6.  2.100 /  6.  2.100\n",
      "Input #0, mov,mp4,m4a,3gp,3g2,mj2, from '/home/aparnabg/orcd/scratch/bidsdata/final_bids-dataset/derivatives/preprocessed/sub-T8P2Z1M9O9/ses-01/beh/sub-T8P2Z1M9O9_ses-01_task-motorplay_run-09_desc-processed_beh.mp4':\n",
      "  Metadata:\n",
      "    major_brand     : isom\n",
      "    minor_version   : 512\n",
      "    compatible_brands: isomiso2avc1mp41\n",
      "    encoder         : Lavf62.6.100\n",
      "  Duration: 00:00:04.30, start: 0.000000, bitrate: 1678 kb/s\n",
      "  Stream #0:0[0x1](eng): Video: h264 (High) (avc1 / 0x31637661), yuv420p(tv, bt470bg/bt470bg/smpte170m, progressive), 408x720 [SAR 1:1 DAR 17:30], 1674 kb/s, 30 fps, 30 tbr, 15360 tbn (default)\n",
      "    Metadata:\n",
      "      handler_name    : Snap Video\n",
      "      vendor_id       : [0][0][0][0]\n",
      "      encoder         : Lavc62.15.100 libx264\n",
      "Output #0, wav, to '/home/aparnabg/orcd/scratch/bidsdata/final_bids-dataset/derivatives/preprocessed/sub-T8P2Z1M9O9/ses-01/beh/sub-T8P2Z1M9O9_ses-01_task-motorplay_run-09_audio.wav':\n",
      "[out#0/wav @ 0x560d6c5794c0] Output file does not contain any stream\n",
      "Error opening output file /home/aparnabg/orcd/scratch/bidsdata/final_bids-dataset/derivatives/preprocessed/sub-T8P2Z1M9O9/ses-01/beh/sub-T8P2Z1M9O9_ses-01_task-motorplay_run-09_audio.wav.\n",
      "Error opening output files: Invalid argument\n",
      ": 1\n",
      "  Audio extraction failed: ffmpeg version N-121159-g0bd5a7d371-20250921 Copyright (c) 2000-2025 the FFmpeg developers\n",
      "  built with gcc 15.2.0 (crosstool-NG 1.28.0.1_403899e)\n",
      "  configuration: --prefix=/ffbuild/prefix --pkg-config-flags=--static --pkg-config=pkg-config --cross-prefix=x86_64-ffbuild-linux-gnu- --arch=x86_64 --target-os=linux --enable-gpl --enable-version3 --disable-debug --enable-iconv --enable-zlib --enable-libxml2 --enable-libsoxr --enable-openssl --enable-libvmaf --enable-fontconfig --enable-libharfbuzz --enable-libfreetype --enable-libfribidi --enable-vulkan --enable-libshaderc --enable-libvorbis --enable-libxcb --enable-xlib --enable-libpulse --enable-opencl --enable-gmp --enable-lzma --enable-amf --enable-libaom --enable-libaribb24 --enable-avisynth --enable-chromaprint --enable-libdav1d --enable-libdavs2 --enable-libdvdread --enable-libdvdnav --disable-libfdk-aac --enable-ffnvcodec --enable-cuda-llvm --enable-frei0r --enable-libgme --enable-libkvazaar --enable-libaribcaption --enable-libass --enable-libbluray --enable-libjxl --enable-libmp3lame --enable-libopus --enable-libplacebo --enable-librist --enable-libssh --enable-libtheora --enable-libvpx --enable-libwebp --enable-libzmq --enable-lv2 --enable-libvpl --enable-openal --enable-liboapv --enable-libopencore-amrnb --enable-libopencore-amrwb --enable-libopenh264 --enable-libopenjpeg --enable-libopenmpt --enable-librav1e --enable-librubberband --disable-schannel --enable-sdl2 --enable-libsnappy --enable-libsrt --enable-libsvtav1 --enable-libtwolame --enable-libuavs3d --enable-libdrm --enable-vaapi --enable-libvidstab --enable-libvvenc --enable-whisper --enable-libx264 --enable-libx265 --enable-libxavs2 --enable-libxvid --enable-libzimg --enable-libzvbi --extra-cflags=-DLIBTWOLAME_STATIC --extra-cxxflags= --extra-libs='-lgomp -ldl' --extra-ldflags=-pthread --extra-ldexeflags=-pie --cc=x86_64-ffbuild-linux-gnu-gcc --cxx=x86_64-ffbuild-linux-gnu-g++ --ar=x86_64-ffbuild-linux-gnu-gcc-ar --ranlib=x86_64-ffbuild-linux-gnu-gcc-ranlib --nm=x86_64-ffbuild-linux-gnu-gcc-nm --extra-version=20250921\n",
      "  libavutil      60. 13.100 / 60. 13.100\n",
      "  libavcodec     62. 15.100 / 62. 15.100\n",
      "  libavformat    62.  6.100 / 62.  6.100\n",
      "  libavdevice    62.  2.100 / 62.  2.100\n",
      "  libavfilter    11.  9.100 / 11.  9.100\n",
      "  libswscale      9.  3.100 /  9.  3.100\n",
      "  libswresample   6.  2.100 /  6.  2.100\n",
      "Input #0, mov,mp4,m4a,3gp,3g2,mj2, from '/home/aparnabg/orcd/scratch/bidsdata/final_bids-dataset/derivatives/preprocessed/sub-W3O7N1N8U2/ses-01/beh/sub-W3O7N1N8U2_ses-01_task-toyplay_run-01_desc-processed_beh.mp4':\n",
      "  Metadata:\n",
      "    major_brand     : isom\n",
      "    minor_version   : 512\n",
      "    compatible_brands: isomiso2avc1mp41\n",
      "    encoder         : Lavf62.6.100\n",
      "  Duration: 00:01:43.23, start: 0.000000, bitrate: 895 kb/s\n",
      "  Stream #0:0[0x1](und): Video: h264 (High) (avc1 / 0x31637661), yuv420p(tv, bt709, progressive), 406x720, 892 kb/s, 30 fps, 30 tbr, 15360 tbn (default)\n",
      "    Metadata:\n",
      "      handler_name    : Core Media Video\n",
      "      vendor_id       : [0][0][0][0]\n",
      "      encoder         : Lavc62.15.100 libx264\n",
      "Output #0, wav, to '/home/aparnabg/orcd/scratch/bidsdata/final_bids-dataset/derivatives/preprocessed/sub-W3O7N1N8U2/ses-01/beh/sub-W3O7N1N8U2_ses-01_task-toyplay_run-01_audio.wav':\n",
      "[out#0/wav @ 0x55de6b4854c0] Output file does not contain any stream\n",
      "Error opening output file /home/aparnabg/orcd/scratch/bidsdata/final_bids-dataset/derivatives/preprocessed/sub-W3O7N1N8U2/ses-01/beh/sub-W3O7N1N8U2_ses-01_task-toyplay_run-01_audio.wav.\n",
      "Error opening output files: Invalid argument\n",
      ": 1\n",
      "  Audio extraction failed: ffmpeg version N-121159-g0bd5a7d371-20250921 Copyright (c) 2000-2025 the FFmpeg developers\n",
      "  built with gcc 15.2.0 (crosstool-NG 1.28.0.1_403899e)\n",
      "  configuration: --prefix=/ffbuild/prefix --pkg-config-flags=--static --pkg-config=pkg-config --cross-prefix=x86_64-ffbuild-linux-gnu- --arch=x86_64 --target-os=linux --enable-gpl --enable-version3 --disable-debug --enable-iconv --enable-zlib --enable-libxml2 --enable-libsoxr --enable-openssl --enable-libvmaf --enable-fontconfig --enable-libharfbuzz --enable-libfreetype --enable-libfribidi --enable-vulkan --enable-libshaderc --enable-libvorbis --enable-libxcb --enable-xlib --enable-libpulse --enable-opencl --enable-gmp --enable-lzma --enable-amf --enable-libaom --enable-libaribb24 --enable-avisynth --enable-chromaprint --enable-libdav1d --enable-libdavs2 --enable-libdvdread --enable-libdvdnav --disable-libfdk-aac --enable-ffnvcodec --enable-cuda-llvm --enable-frei0r --enable-libgme --enable-libkvazaar --enable-libaribcaption --enable-libass --enable-libbluray --enable-libjxl --enable-libmp3lame --enable-libopus --enable-libplacebo --enable-librist --enable-libssh --enable-libtheora --enable-libvpx --enable-libwebp --enable-libzmq --enable-lv2 --enable-libvpl --enable-openal --enable-liboapv --enable-libopencore-amrnb --enable-libopencore-amrwb --enable-libopenh264 --enable-libopenjpeg --enable-libopenmpt --enable-librav1e --enable-librubberband --disable-schannel --enable-sdl2 --enable-libsnappy --enable-libsrt --enable-libsvtav1 --enable-libtwolame --enable-libuavs3d --enable-libdrm --enable-vaapi --enable-libvidstab --enable-libvvenc --enable-whisper --enable-libx264 --enable-libx265 --enable-libxavs2 --enable-libxvid --enable-libzimg --enable-libzvbi --extra-cflags=-DLIBTWOLAME_STATIC --extra-cxxflags= --extra-libs='-lgomp -ldl' --extra-ldflags=-pthread --extra-ldexeflags=-pie --cc=x86_64-ffbuild-linux-gnu-gcc --cxx=x86_64-ffbuild-linux-gnu-g++ --ar=x86_64-ffbuild-linux-gnu-gcc-ar --ranlib=x86_64-ffbuild-linux-gnu-gcc-ranlib --nm=x86_64-ffbuild-linux-gnu-gcc-nm --extra-version=20250921\n",
      "  libavutil      60. 13.100 / 60. 13.100\n",
      "  libavcodec     62. 15.100 / 62. 15.100\n",
      "  libavformat    62.  6.100 / 62.  6.100\n",
      "  libavdevice    62.  2.100 / 62.  2.100\n",
      "  libavfilter    11.  9.100 / 11.  9.100\n",
      "  libswscale      9.  3.100 /  9.  3.100\n",
      "  libswresample   6.  2.100 /  6.  2.100\n",
      "[mov,mp4,m4a,3gp,3g2,mj2 @ 0x563f29669880] Format mov,mp4,m4a,3gp,3g2,mj2 detected only with low score of 1, misdetection possible!\n",
      "[mov,mp4,m4a,3gp,3g2,mj2 @ 0x563f29669880] moov atom not found\n",
      "[in#0 @ 0x563f29669500] Error opening input: Invalid data found when processing input\n",
      "Error opening input file /home/aparnabg/orcd/scratch/bidsdata/final_bids-dataset/derivatives/preprocessed/sub-D9N0U7M9X3/ses-02/beh/sub-D9N0U7M9X3_ses-02_task-specialoccasion_run-01_desc-processed_beh.mp4.\n",
      "Error opening input files: Invalid data found when processing input\n",
      ": 1\n",
      "  FFmpeg conversion failed: ffmpeg version N-121159-g0bd5a7d371-20250921 Copyright (c) 2000-2025 the FFmpeg developers\n",
      "  built with gcc 15.2.0 (crosstool-NG 1.28.0.1_403899e)\n",
      "  configuration: --prefix=/ffbuild/prefix --pkg-config-flags=--static --pkg-config=pkg-config --cross-prefix=x86_64-ffbuild-linux-gnu- --arch=x86_64 --target-os=linux --enable-gpl --enable-version3 --disable-debug --enable-iconv --enable-zlib --enable-libxml2 --enable-libsoxr --enable-openssl --enable-libvmaf --enable-fontconfig --enable-libharfbuzz --enable-libfreetype --enable-libfribidi --enable-vulkan --enable-libshaderc --enable-libvorbis --enable-libxcb --enable-xlib --enable-libpulse --enable-opencl --enable-gmp --enable-lzma --enable-amf --enable-libaom --enable-libaribb24 --enable-avisynth --enable-chromaprint --enable-libdav1d --enable-libdavs2 --enable-libdvdread --enable-libdvdnav --disable-libfdk-aac --enable-ffnvcodec --enable-cuda-llvm --enable-frei0r --enable-libgme --enable-libkvazaar --enable-libaribcaption --enable-libass --enable-libbluray --enable-libjxl --enable-libmp3lame --enable-libopus --enable-libplacebo --enable-librist --enable-libssh --enable-libtheora --enable-libvpx --enable-libwebp --enable-libzmq --enable-lv2 --enable-libvpl --enable-openal --enable-liboapv --enable-libopencore-amrnb --enable-libopencore-amrwb --enable-libopenh264 --enable-libopenjpeg --enable-libopenmpt --enable-librav1e --enable-librubberband --disable-schannel --enable-sdl2 --enable-libsnappy --enable-libsrt --enable-libsvtav1 --enable-libtwolame --enable-libuavs3d --enable-libdrm --enable-vaapi --enable-libvidstab --enable-libvvenc --enable-whisper --enable-libx264 --enable-libx265 --enable-libxavs2 --enable-libxvid --enable-libzimg --enable-libzvbi --extra-cflags=-DLIBTWOLAME_STATIC --extra-cxxflags= --extra-libs='-lgomp -ldl' --extra-ldflags=-pthread --extra-ldexeflags=-pie --cc=x86_64-ffbuild-linux-gnu-gcc --cxx=x86_64-ffbuild-linux-gnu-g++ --ar=x86_64-ffbuild-linux-gnu-gcc-ar --ranlib=x86_64-ffbuild-linux-gnu-gcc-ranlib --nm=x86_64-ffbuild-linux-gnu-gcc-nm --extra-version=20250921\n",
      "  libavutil      60. 13.100 / 60. 13.100\n",
      "  libavcodec     62. 15.100 / 62. 15.100\n",
      "  libavformat    62.  6.100 / 62.  6.100\n",
      "  libavdevice    62.  2.100 / 62.  2.100\n",
      "  libavfilter    11.  9.100 / 11.  9.100\n",
      "  libswscale      9.  3.100 /  9.  3.100\n",
      "  libswresample   6.  2.100 /  6.  2.100\n",
      "Input #0, mov,mp4,m4a,3gp,3g2,mj2, from '/home/aparnabg/orcd/scratch/bidsdata/final_bids-dataset/sourcedata/sub-A2P7X9N8L7/ses-01/video/sub-A2P7X9N8L7_ses-01_task-generalsocialcommunicationinteraction_run-04_video..3gp':\n",
      "  Metadata:\n",
      "    major_brand     : 3gp6\n",
      "    minor_version   : 256\n",
      "    compatible_brands: 3gp6isom\n",
      "    creation_time   : 2020-01-01T21:21:42.000000Z\n",
      "  Duration: 00:00:36.60, start: 0.000000, bitrate: 150 kb/s\n",
      "  Stream #0:0[0x1](und): Audio: amr_nb (amrnb) (samr / 0x726D6173), 8000 Hz, mono, fltp, 12 kb/s (default)\n",
      "    Metadata:\n",
      "      creation_time   : 2020-01-01T21:21:42.000000Z\n",
      "      handler_name    : Core Media Audio\n",
      "      vendor_id       : [0][0][0][0]\n",
      "  Stream #0:1[0x2](und): Video: h264 (Baseline) (avc1 / 0x31637661), yuv420p(tv, bt709, progressive), 320x240, 135 kb/s, 15 fps, 15 tbr, 600 tbn (default)\n",
      "    Metadata:\n",
      "      creation_time   : 2020-01-01T21:21:42.000000Z\n",
      "      handler_name    : Core Media Video\n",
      "      vendor_id       : [0][0][0][0]\n",
      "Stream mapping:\n",
      "  Stream #0:1 -> #0:0 (copy)\n",
      "  Stream #0:0 -> #0:1 (copy)\n",
      "[mp4 @ 0x5632294e44c0] Could not find tag for codec amr_nb in stream #1, codec not currently supported in container\n",
      "[out#0/mp4 @ 0x56322959b0c0] Could not write header (incorrect codec parameters ?): Invalid argument\n",
      "Conversion failed!\n",
      ": 1\n",
      "  FFmpeg conversion failed: ffmpeg version N-121159-g0bd5a7d371-20250921 Copyright (c) 2000-2025 the FFmpeg developers\n",
      "  built with gcc 15.2.0 (crosstool-NG 1.28.0.1_403899e)\n",
      "  configuration: --prefix=/ffbuild/prefix --pkg-config-flags=--static --pkg-config=pkg-config --cross-prefix=x86_64-ffbuild-linux-gnu- --arch=x86_64 --target-os=linux --enable-gpl --enable-version3 --disable-debug --enable-iconv --enable-zlib --enable-libxml2 --enable-libsoxr --enable-openssl --enable-libvmaf --enable-fontconfig --enable-libharfbuzz --enable-libfreetype --enable-libfribidi --enable-vulkan --enable-libshaderc --enable-libvorbis --enable-libxcb --enable-xlib --enable-libpulse --enable-opencl --enable-gmp --enable-lzma --enable-amf --enable-libaom --enable-libaribb24 --enable-avisynth --enable-chromaprint --enable-libdav1d --enable-libdavs2 --enable-libdvdread --enable-libdvdnav --disable-libfdk-aac --enable-ffnvcodec --enable-cuda-llvm --enable-frei0r --enable-libgme --enable-libkvazaar --enable-libaribcaption --enable-libass --enable-libbluray --enable-libjxl --enable-libmp3lame --enable-libopus --enable-libplacebo --enable-librist --enable-libssh --enable-libtheora --enable-libvpx --enable-libwebp --enable-libzmq --enable-lv2 --enable-libvpl --enable-openal --enable-liboapv --enable-libopencore-amrnb --enable-libopencore-amrwb --enable-libopenh264 --enable-libopenjpeg --enable-libopenmpt --enable-librav1e --enable-librubberband --disable-schannel --enable-sdl2 --enable-libsnappy --enable-libsrt --enable-libsvtav1 --enable-libtwolame --enable-libuavs3d --enable-libdrm --enable-vaapi --enable-libvidstab --enable-libvvenc --enable-whisper --enable-libx264 --enable-libx265 --enable-libxavs2 --enable-libxvid --enable-libzimg --enable-libzvbi --extra-cflags=-DLIBTWOLAME_STATIC --extra-cxxflags= --extra-libs='-lgomp -ldl' --extra-ldflags=-pthread --extra-ldexeflags=-pie --cc=x86_64-ffbuild-linux-gnu-gcc --cxx=x86_64-ffbuild-linux-gnu-g++ --ar=x86_64-ffbuild-linux-gnu-gcc-ar --ranlib=x86_64-ffbuild-linux-gnu-gcc-ranlib --nm=x86_64-ffbuild-linux-gnu-gcc-nm --extra-version=20250921\n",
      "  libavutil      60. 13.100 / 60. 13.100\n",
      "  libavcodec     62. 15.100 / 62. 15.100\n",
      "  libavformat    62.  6.100 / 62.  6.100\n",
      "  libavdevice    62.  2.100 / 62.  2.100\n",
      "  libavfilter    11.  9.100 / 11.  9.100\n",
      "  libswscale      9.  3.100 /  9.  3.100\n",
      "  libswresample   6.  2.100 /  6.  2.100\n",
      "Input #0, mov,mp4,m4a,3gp,3g2,mj2, from '/home/aparnabg/orcd/scratch/bidsdata/final_bids-dataset/sourcedata/sub-H9T5Y8D3A1/ses-01/video/sub-H9T5Y8D3A1_ses-01_task-unknown_run-01_video..3gp':\n",
      "  Metadata:\n",
      "    major_brand     : mp42\n",
      "    minor_version   : 0\n",
      "    compatible_brands: isommp42\n",
      "    creation_time   : 2018-02-18T18:45:45.000000Z\n",
      "  Duration: 00:00:29.46, start: 0.000000, bitrate: 148 kb/s\n",
      "  Stream #0:0[0x1](eng): Video: h263 (s263 / 0x33363273), yuv420p, 176x144 [SAR 12:11 DAR 4:3], 80 kb/s, SAR 1:1 DAR 11:9, 20.22 fps, 20.25 tbr, 90k tbn (default)\n",
      "    Metadata:\n",
      "      creation_time   : 2018-02-18T18:45:45.000000Z\n",
      "      handler_name    : VideoHandle\n",
      "      vendor_id       : [0][0][0][0]\n",
      "    Side data:\n",
      "      Display Matrix: rotation of -90.00 degrees\n",
      "  Stream #0:1[0x2](eng): Audio: aac (LC) (mp4a / 0x6134706D), 48000 Hz, stereo, fltp, 64 kb/s (default)\n",
      "    Metadata:\n",
      "      creation_time   : 2018-02-18T18:45:45.000000Z\n",
      "      handler_name    : SoundHandle\n",
      "      vendor_id       : [0][0][0][0]\n",
      "Stream mapping:\n",
      "  Stream #0:0 -> #0:0 (copy)\n",
      "  Stream #0:1 -> #0:1 (copy)\n",
      "[mp4 @ 0x55d965e0eac0] Could not find tag for codec h263 in stream #0, codec not currently supported in container\n",
      "[out#0/mp4 @ 0x55d965e4b480] Could not write header (incorrect codec parameters ?): Invalid argument\n",
      "Conversion failed!\n",
      ": 1\n",
      "  FFmpeg conversion failed: ffmpeg version N-121159-g0bd5a7d371-20250921 Copyright (c) 2000-2025 the FFmpeg developers\n",
      "  built with gcc 15.2.0 (crosstool-NG 1.28.0.1_403899e)\n",
      "  configuration: --prefix=/ffbuild/prefix --pkg-config-flags=--static --pkg-config=pkg-config --cross-prefix=x86_64-ffbuild-linux-gnu- --arch=x86_64 --target-os=linux --enable-gpl --enable-version3 --disable-debug --enable-iconv --enable-zlib --enable-libxml2 --enable-libsoxr --enable-openssl --enable-libvmaf --enable-fontconfig --enable-libharfbuzz --enable-libfreetype --enable-libfribidi --enable-vulkan --enable-libshaderc --enable-libvorbis --enable-libxcb --enable-xlib --enable-libpulse --enable-opencl --enable-gmp --enable-lzma --enable-amf --enable-libaom --enable-libaribb24 --enable-avisynth --enable-chromaprint --enable-libdav1d --enable-libdavs2 --enable-libdvdread --enable-libdvdnav --disable-libfdk-aac --enable-ffnvcodec --enable-cuda-llvm --enable-frei0r --enable-libgme --enable-libkvazaar --enable-libaribcaption --enable-libass --enable-libbluray --enable-libjxl --enable-libmp3lame --enable-libopus --enable-libplacebo --enable-librist --enable-libssh --enable-libtheora --enable-libvpx --enable-libwebp --enable-libzmq --enable-lv2 --enable-libvpl --enable-openal --enable-liboapv --enable-libopencore-amrnb --enable-libopencore-amrwb --enable-libopenh264 --enable-libopenjpeg --enable-libopenmpt --enable-librav1e --enable-librubberband --disable-schannel --enable-sdl2 --enable-libsnappy --enable-libsrt --enable-libsvtav1 --enable-libtwolame --enable-libuavs3d --enable-libdrm --enable-vaapi --enable-libvidstab --enable-libvvenc --enable-whisper --enable-libx264 --enable-libx265 --enable-libxavs2 --enable-libxvid --enable-libzimg --enable-libzvbi --extra-cflags=-DLIBTWOLAME_STATIC --extra-cxxflags= --extra-libs='-lgomp -ldl' --extra-ldflags=-pthread --extra-ldexeflags=-pie --cc=x86_64-ffbuild-linux-gnu-gcc --cxx=x86_64-ffbuild-linux-gnu-g++ --ar=x86_64-ffbuild-linux-gnu-gcc-ar --ranlib=x86_64-ffbuild-linux-gnu-gcc-ranlib --nm=x86_64-ffbuild-linux-gnu-gcc-nm --extra-version=20250921\n",
      "  libavutil      60. 13.100 / 60. 13.100\n",
      "  libavcodec     62. 15.100 / 62. 15.100\n",
      "  libavformat    62.  6.100 / 62.  6.100\n",
      "  libavdevice    62.  2.100 / 62.  2.100\n",
      "  libavfilter    11.  9.100 / 11.  9.100\n",
      "  libswscale      9.  3.100 /  9.  3.100\n",
      "  libswresample   6.  2.100 /  6.  2.100\n",
      "Input #0, mov,mp4,m4a,3gp,3g2,mj2, from '/home/aparnabg/orcd/scratch/bidsdata/final_bids-dataset/sourcedata/sub-N3L7A1I2B9/ses-02/video/sub-N3L7A1I2B9_ses-02_task-generalsocialcommunicationinteraction_run-09_video..3gp':\n",
      "  Metadata:\n",
      "    major_brand     : 3gp4\n",
      "    minor_version   : 0\n",
      "    compatible_brands: isom3gp4\n",
      "    creation_time   : 2022-01-14T18:19:46.000000Z\n",
      "    com.android.version: 11\n",
      "    com.android.capture.fps: 15.000000\n",
      "  Duration: 00:01:00.11, start: 0.000000, bitrate: 141 kb/s\n",
      "  Stream #0:0[0x1](eng): Video: h264 (Baseline) (avc1 / 0x31637661), yuv420p(tv, bt709, progressive), 320x240, 127 kb/s, SAR 1:1 DAR 4:3, 14.93 fps, 15 tbr, 90k tbn, start 0.013200 (default)\n",
      "    Metadata:\n",
      "      creation_time   : 2022-01-14T18:19:46.000000Z\n",
      "      handler_name    : VideoHandle\n",
      "      vendor_id       : [0][0][0][0]\n",
      "    Side data:\n",
      "      Display Matrix: rotation of -90.00 degrees\n",
      "  Stream #0:1[0x2](eng): Audio: amr_nb (amrnb) (samr / 0x726D6173), 8000 Hz, mono, fltp, 12 kb/s (default)\n",
      "    Metadata:\n",
      "      creation_time   : 2022-01-14T18:19:46.000000Z\n",
      "      handler_name    : SoundHandle\n",
      "      vendor_id       : [0][0][0][0]\n",
      "Stream mapping:\n",
      "  Stream #0:0 -> #0:0 (copy)\n",
      "  Stream #0:1 -> #0:1 (copy)\n",
      "[mp4 @ 0x557146320880] Could not find tag for codec amr_nb in stream #1, codec not currently supported in container\n",
      "[out#0/mp4 @ 0x55714639c580] Could not write header (incorrect codec parameters ?): Invalid argument\n",
      "Conversion failed!\n",
      ": 1\n",
      "  FFmpeg conversion failed: ffmpeg version N-121159-g0bd5a7d371-20250921 Copyright (c) 2000-2025 the FFmpeg developers\n",
      "  built with gcc 15.2.0 (crosstool-NG 1.28.0.1_403899e)\n",
      "  configuration: --prefix=/ffbuild/prefix --pkg-config-flags=--static --pkg-config=pkg-config --cross-prefix=x86_64-ffbuild-linux-gnu- --arch=x86_64 --target-os=linux --enable-gpl --enable-version3 --disable-debug --enable-iconv --enable-zlib --enable-libxml2 --enable-libsoxr --enable-openssl --enable-libvmaf --enable-fontconfig --enable-libharfbuzz --enable-libfreetype --enable-libfribidi --enable-vulkan --enable-libshaderc --enable-libvorbis --enable-libxcb --enable-xlib --enable-libpulse --enable-opencl --enable-gmp --enable-lzma --enable-amf --enable-libaom --enable-libaribb24 --enable-avisynth --enable-chromaprint --enable-libdav1d --enable-libdavs2 --enable-libdvdread --enable-libdvdnav --disable-libfdk-aac --enable-ffnvcodec --enable-cuda-llvm --enable-frei0r --enable-libgme --enable-libkvazaar --enable-libaribcaption --enable-libass --enable-libbluray --enable-libjxl --enable-libmp3lame --enable-libopus --enable-libplacebo --enable-librist --enable-libssh --enable-libtheora --enable-libvpx --enable-libwebp --enable-libzmq --enable-lv2 --enable-libvpl --enable-openal --enable-liboapv --enable-libopencore-amrnb --enable-libopencore-amrwb --enable-libopenh264 --enable-libopenjpeg --enable-libopenmpt --enable-librav1e --enable-librubberband --disable-schannel --enable-sdl2 --enable-libsnappy --enable-libsrt --enable-libsvtav1 --enable-libtwolame --enable-libuavs3d --enable-libdrm --enable-vaapi --enable-libvidstab --enable-libvvenc --enable-whisper --enable-libx264 --enable-libx265 --enable-libxavs2 --enable-libxvid --enable-libzimg --enable-libzvbi --extra-cflags=-DLIBTWOLAME_STATIC --extra-cxxflags= --extra-libs='-lgomp -ldl' --extra-ldflags=-pthread --extra-ldexeflags=-pie --cc=x86_64-ffbuild-linux-gnu-gcc --cxx=x86_64-ffbuild-linux-gnu-g++ --ar=x86_64-ffbuild-linux-gnu-gcc-ar --ranlib=x86_64-ffbuild-linux-gnu-gcc-ranlib --nm=x86_64-ffbuild-linux-gnu-gcc-nm --extra-version=20250921\n",
      "  libavutil      60. 13.100 / 60. 13.100\n",
      "  libavcodec     62. 15.100 / 62. 15.100\n",
      "  libavformat    62.  6.100 / 62.  6.100\n",
      "  libavdevice    62.  2.100 / 62.  2.100\n",
      "  libavfilter    11.  9.100 / 11.  9.100\n",
      "  libswscale      9.  3.100 /  9.  3.100\n",
      "  libswresample   6.  2.100 /  6.  2.100\n",
      "[aist#0:1/pcm_u8 @ 0x556affb3acc0] Guessed Channel Layout: mono\n",
      "Input #0, avi, from '/home/aparnabg/orcd/scratch/bidsdata/final_bids-dataset/sourcedata/sub-Y5C5R8P9Z5/ses-01/video/sub-Y5C5R8P9Z5_ses-01_task-unknown_run-01_video..AVI':\n",
      "  Metadata:\n",
      "    creation_time   : 2015-05-30 05:09:17\n",
      "    software        : CanonMVI06\n",
      "  Duration: 00:00:27.20, start: 0.000000, bitrate: 9899 kb/s\n",
      "  Stream #0:0: Video: mjpeg (Baseline) (MJPG / 0x47504A4D), yuvj422p(pc, bt470bg/unknown/unknown), 640x480, 9826 kb/s, 20 fps, 20 tbr, 20 tbn\n",
      "  Stream #0:1: Audio: pcm_u8 ([1][0][0][0] / 0x0001), 11024 Hz, mono, u8, 88 kb/s\n",
      "Stream mapping:\n",
      "  Stream #0:0 -> #0:0 (copy)\n",
      "  Stream #0:1 -> #0:1 (copy)\n",
      "[mp4 @ 0x556affb44d80] Could not find tag for codec pcm_u8 in stream #1, codec not currently supported in container\n",
      "[out#0/mp4 @ 0x556affb44c40] Could not write header (incorrect codec parameters ?): Invalid argument\n",
      "Conversion failed!\n",
      ": 1\n",
      "  FFmpeg conversion failed: ffmpeg version N-121159-g0bd5a7d371-20250921 Copyright (c) 2000-2025 the FFmpeg developers\n",
      "  built with gcc 15.2.0 (crosstool-NG 1.28.0.1_403899e)\n",
      "  configuration: --prefix=/ffbuild/prefix --pkg-config-flags=--static --pkg-config=pkg-config --cross-prefix=x86_64-ffbuild-linux-gnu- --arch=x86_64 --target-os=linux --enable-gpl --enable-version3 --disable-debug --enable-iconv --enable-zlib --enable-libxml2 --enable-libsoxr --enable-openssl --enable-libvmaf --enable-fontconfig --enable-libharfbuzz --enable-libfreetype --enable-libfribidi --enable-vulkan --enable-libshaderc --enable-libvorbis --enable-libxcb --enable-xlib --enable-libpulse --enable-opencl --enable-gmp --enable-lzma --enable-amf --enable-libaom --enable-libaribb24 --enable-avisynth --enable-chromaprint --enable-libdav1d --enable-libdavs2 --enable-libdvdread --enable-libdvdnav --disable-libfdk-aac --enable-ffnvcodec --enable-cuda-llvm --enable-frei0r --enable-libgme --enable-libkvazaar --enable-libaribcaption --enable-libass --enable-libbluray --enable-libjxl --enable-libmp3lame --enable-libopus --enable-libplacebo --enable-librist --enable-libssh --enable-libtheora --enable-libvpx --enable-libwebp --enable-libzmq --enable-lv2 --enable-libvpl --enable-openal --enable-liboapv --enable-libopencore-amrnb --enable-libopencore-amrwb --enable-libopenh264 --enable-libopenjpeg --enable-libopenmpt --enable-librav1e --enable-librubberband --disable-schannel --enable-sdl2 --enable-libsnappy --enable-libsrt --enable-libsvtav1 --enable-libtwolame --enable-libuavs3d --enable-libdrm --enable-vaapi --enable-libvidstab --enable-libvvenc --enable-whisper --enable-libx264 --enable-libx265 --enable-libxavs2 --enable-libxvid --enable-libzimg --enable-libzvbi --extra-cflags=-DLIBTWOLAME_STATIC --extra-cxxflags= --extra-libs='-lgomp -ldl' --extra-ldflags=-pthread --extra-ldexeflags=-pie --cc=x86_64-ffbuild-linux-gnu-gcc --cxx=x86_64-ffbuild-linux-gnu-g++ --ar=x86_64-ffbuild-linux-gnu-gcc-ar --ranlib=x86_64-ffbuild-linux-gnu-gcc-ranlib --nm=x86_64-ffbuild-linux-gnu-gcc-nm --extra-version=20250921\n",
      "  libavutil      60. 13.100 / 60. 13.100\n",
      "  libavcodec     62. 15.100 / 62. 15.100\n",
      "  libavformat    62.  6.100 / 62.  6.100\n",
      "  libavdevice    62.  2.100 / 62.  2.100\n",
      "  libavfilter    11.  9.100 / 11.  9.100\n",
      "  libswscale      9.  3.100 /  9.  3.100\n",
      "  libswresample   6.  2.100 /  6.  2.100\n",
      "[aist#0:1/pcm_u8 @ 0x556fb8d06f00] Guessed Channel Layout: mono\n",
      "Input #0, avi, from '/home/aparnabg/orcd/scratch/bidsdata/final_bids-dataset/sourcedata/sub-Y5C5R8P9Z5/ses-01/video/sub-Y5C5R8P9Z5_ses-01_task-unknown_run-03_video..AVI':\n",
      "  Metadata:\n",
      "    creation_time   : 2015-05-31 22:51:06\n",
      "    software        : CanonMVI06\n",
      "  Duration: 00:01:35.40, start: 0.000000, bitrate: 10003 kb/s\n",
      "  Stream #0:0: Video: mjpeg (Baseline) (MJPG / 0x47504A4D), yuvj422p(pc, bt470bg/unknown/unknown), 640x480, 9917 kb/s, 20 fps, 20 tbr, 20 tbn\n",
      "  Stream #0:1: Audio: pcm_u8 ([1][0][0][0] / 0x0001), 11024 Hz, mono, u8, 88 kb/s\n",
      "Stream mapping:\n",
      "  Stream #0:0 -> #0:0 (copy)\n",
      "  Stream #0:1 -> #0:1 (copy)\n",
      "[mp4 @ 0x556fb8d08d00] Could not find tag for codec pcm_u8 in stream #1, codec not currently supported in container\n",
      "[out#0/mp4 @ 0x556fb8d08bc0] Could not write header (incorrect codec parameters ?): Invalid argument\n",
      "Conversion failed!\n",
      ": 1\n",
      "  FFmpeg conversion failed: ffmpeg version N-121159-g0bd5a7d371-20250921 Copyright (c) 2000-2025 the FFmpeg developers\n",
      "  built with gcc 15.2.0 (crosstool-NG 1.28.0.1_403899e)\n",
      "  configuration: --prefix=/ffbuild/prefix --pkg-config-flags=--static --pkg-config=pkg-config --cross-prefix=x86_64-ffbuild-linux-gnu- --arch=x86_64 --target-os=linux --enable-gpl --enable-version3 --disable-debug --enable-iconv --enable-zlib --enable-libxml2 --enable-libsoxr --enable-openssl --enable-libvmaf --enable-fontconfig --enable-libharfbuzz --enable-libfreetype --enable-libfribidi --enable-vulkan --enable-libshaderc --enable-libvorbis --enable-libxcb --enable-xlib --enable-libpulse --enable-opencl --enable-gmp --enable-lzma --enable-amf --enable-libaom --enable-libaribb24 --enable-avisynth --enable-chromaprint --enable-libdav1d --enable-libdavs2 --enable-libdvdread --enable-libdvdnav --disable-libfdk-aac --enable-ffnvcodec --enable-cuda-llvm --enable-frei0r --enable-libgme --enable-libkvazaar --enable-libaribcaption --enable-libass --enable-libbluray --enable-libjxl --enable-libmp3lame --enable-libopus --enable-libplacebo --enable-librist --enable-libssh --enable-libtheora --enable-libvpx --enable-libwebp --enable-libzmq --enable-lv2 --enable-libvpl --enable-openal --enable-liboapv --enable-libopencore-amrnb --enable-libopencore-amrwb --enable-libopenh264 --enable-libopenjpeg --enable-libopenmpt --enable-librav1e --enable-librubberband --disable-schannel --enable-sdl2 --enable-libsnappy --enable-libsrt --enable-libsvtav1 --enable-libtwolame --enable-libuavs3d --enable-libdrm --enable-vaapi --enable-libvidstab --enable-libvvenc --enable-whisper --enable-libx264 --enable-libx265 --enable-libxavs2 --enable-libxvid --enable-libzimg --enable-libzvbi --extra-cflags=-DLIBTWOLAME_STATIC --extra-cxxflags= --extra-libs='-lgomp -ldl' --extra-ldflags=-pthread --extra-ldexeflags=-pie --cc=x86_64-ffbuild-linux-gnu-gcc --cxx=x86_64-ffbuild-linux-gnu-g++ --ar=x86_64-ffbuild-linux-gnu-gcc-ar --ranlib=x86_64-ffbuild-linux-gnu-gcc-ranlib --nm=x86_64-ffbuild-linux-gnu-gcc-nm --extra-version=20250921\n",
      "  libavutil      60. 13.100 / 60. 13.100\n",
      "  libavcodec     62. 15.100 / 62. 15.100\n",
      "  libavformat    62.  6.100 / 62.  6.100\n",
      "  libavdevice    62.  2.100 / 62.  2.100\n",
      "  libavfilter    11.  9.100 / 11.  9.100\n",
      "  libswscale      9.  3.100 /  9.  3.100\n",
      "  libswresample   6.  2.100 /  6.  2.100\n",
      "[aist#0:1/pcm_u8 @ 0x559330724100] Guessed Channel Layout: mono\n",
      "Input #0, avi, from '/home/aparnabg/orcd/scratch/bidsdata/final_bids-dataset/sourcedata/sub-Y5C5R8P9Z5/ses-01/video/sub-Y5C5R8P9Z5_ses-01_task-unknown_run-02_video..AVI':\n",
      "  Metadata:\n",
      "    creation_time   : 2015-05-31 07:14:18\n",
      "    software        : CanonMVI06\n",
      "  Duration: 00:01:58.10, start: 0.000000, bitrate: 10032 kb/s\n",
      "  Stream #0:0: Video: mjpeg (Baseline) (MJPG / 0x47504A4D), yuvj422p(pc, bt470bg/unknown/unknown), 640x480, 9945 kb/s, 20 fps, 20 tbr, 20 tbn\n",
      "  Stream #0:1: Audio: pcm_u8 ([1][0][0][0] / 0x0001), 11024 Hz, mono, u8, 88 kb/s\n",
      "Stream mapping:\n",
      "  Stream #0:0 -> #0:0 (copy)\n",
      "  Stream #0:1 -> #0:1 (copy)\n",
      "[mp4 @ 0x559330725f40] Could not find tag for codec pcm_u8 in stream #1, codec not currently supported in container\n",
      "[out#0/mp4 @ 0x559330725e00] Could not write header (incorrect codec parameters ?): Invalid argument\n",
      "Conversion failed!\n",
      ": 1\n",
      "  FFmpeg conversion failed: ffmpeg version N-121159-g0bd5a7d371-20250921 Copyright (c) 2000-2025 the FFmpeg developers\n",
      "  built with gcc 15.2.0 (crosstool-NG 1.28.0.1_403899e)\n",
      "  configuration: --prefix=/ffbuild/prefix --pkg-config-flags=--static --pkg-config=pkg-config --cross-prefix=x86_64-ffbuild-linux-gnu- --arch=x86_64 --target-os=linux --enable-gpl --enable-version3 --disable-debug --enable-iconv --enable-zlib --enable-libxml2 --enable-libsoxr --enable-openssl --enable-libvmaf --enable-fontconfig --enable-libharfbuzz --enable-libfreetype --enable-libfribidi --enable-vulkan --enable-libshaderc --enable-libvorbis --enable-libxcb --enable-xlib --enable-libpulse --enable-opencl --enable-gmp --enable-lzma --enable-amf --enable-libaom --enable-libaribb24 --enable-avisynth --enable-chromaprint --enable-libdav1d --enable-libdavs2 --enable-libdvdread --enable-libdvdnav --disable-libfdk-aac --enable-ffnvcodec --enable-cuda-llvm --enable-frei0r --enable-libgme --enable-libkvazaar --enable-libaribcaption --enable-libass --enable-libbluray --enable-libjxl --enable-libmp3lame --enable-libopus --enable-libplacebo --enable-librist --enable-libssh --enable-libtheora --enable-libvpx --enable-libwebp --enable-libzmq --enable-lv2 --enable-libvpl --enable-openal --enable-liboapv --enable-libopencore-amrnb --enable-libopencore-amrwb --enable-libopenh264 --enable-libopenjpeg --enable-libopenmpt --enable-librav1e --enable-librubberband --disable-schannel --enable-sdl2 --enable-libsnappy --enable-libsrt --enable-libsvtav1 --enable-libtwolame --enable-libuavs3d --enable-libdrm --enable-vaapi --enable-libvidstab --enable-libvvenc --enable-whisper --enable-libx264 --enable-libx265 --enable-libxavs2 --enable-libxvid --enable-libzimg --enable-libzvbi --extra-cflags=-DLIBTWOLAME_STATIC --extra-cxxflags= --extra-libs='-lgomp -ldl' --extra-ldflags=-pthread --extra-ldexeflags=-pie --cc=x86_64-ffbuild-linux-gnu-gcc --cxx=x86_64-ffbuild-linux-gnu-g++ --ar=x86_64-ffbuild-linux-gnu-gcc-ar --ranlib=x86_64-ffbuild-linux-gnu-gcc-ranlib --nm=x86_64-ffbuild-linux-gnu-gcc-nm --extra-version=20250921\n",
      "  libavutil      60. 13.100 / 60. 13.100\n",
      "  libavcodec     62. 15.100 / 62. 15.100\n",
      "  libavformat    62.  6.100 / 62.  6.100\n",
      "  libavdevice    62.  2.100 / 62.  2.100\n",
      "  libavfilter    11.  9.100 / 11.  9.100\n",
      "  libswscale      9.  3.100 /  9.  3.100\n",
      "  libswresample   6.  2.100 /  6.  2.100\n",
      "[aist#0:1/pcm_u8 @ 0x55e250233100] Guessed Channel Layout: mono\n",
      "Input #0, avi, from '/home/aparnabg/orcd/scratch/bidsdata/final_bids-dataset/sourcedata/sub-Y5C5R8P9Z5/ses-01/video/sub-Y5C5R8P9Z5_ses-01_task-unknown_run-04_video..AVI':\n",
      "  Metadata:\n",
      "    creation_time   : 2015-05-31 12:26:23\n",
      "    software        : CanonMVI06\n",
      "  Duration: 00:02:01.90, start: 0.000000, bitrate: 9803 kb/s\n",
      "  Stream #0:0: Video: mjpeg (Baseline) (MJPG / 0x47504A4D), yuvj422p(pc, bt470bg/unknown/unknown), 640x480, 9716 kb/s, 20 fps, 20 tbr, 20 tbn\n",
      "  Stream #0:1: Audio: pcm_u8 ([1][0][0][0] / 0x0001), 11024 Hz, mono, u8, 88 kb/s\n",
      "Stream mapping:\n",
      "  Stream #0:0 -> #0:0 (copy)\n",
      "  Stream #0:1 -> #0:1 (copy)\n",
      "[mp4 @ 0x55e250234f40] Could not find tag for codec pcm_u8 in stream #1, codec not currently supported in container\n",
      "[out#0/mp4 @ 0x55e250234e00] Could not write header (incorrect codec parameters ?): Invalid argument\n",
      "Conversion failed!\n",
      ": 1\n",
      "  FFmpeg conversion failed: ffmpeg version N-121159-g0bd5a7d371-20250921 Copyright (c) 2000-2025 the FFmpeg developers\n",
      "  built with gcc 15.2.0 (crosstool-NG 1.28.0.1_403899e)\n",
      "  configuration: --prefix=/ffbuild/prefix --pkg-config-flags=--static --pkg-config=pkg-config --cross-prefix=x86_64-ffbuild-linux-gnu- --arch=x86_64 --target-os=linux --enable-gpl --enable-version3 --disable-debug --enable-iconv --enable-zlib --enable-libxml2 --enable-libsoxr --enable-openssl --enable-libvmaf --enable-fontconfig --enable-libharfbuzz --enable-libfreetype --enable-libfribidi --enable-vulkan --enable-libshaderc --enable-libvorbis --enable-libxcb --enable-xlib --enable-libpulse --enable-opencl --enable-gmp --enable-lzma --enable-amf --enable-libaom --enable-libaribb24 --enable-avisynth --enable-chromaprint --enable-libdav1d --enable-libdavs2 --enable-libdvdread --enable-libdvdnav --disable-libfdk-aac --enable-ffnvcodec --enable-cuda-llvm --enable-frei0r --enable-libgme --enable-libkvazaar --enable-libaribcaption --enable-libass --enable-libbluray --enable-libjxl --enable-libmp3lame --enable-libopus --enable-libplacebo --enable-librist --enable-libssh --enable-libtheora --enable-libvpx --enable-libwebp --enable-libzmq --enable-lv2 --enable-libvpl --enable-openal --enable-liboapv --enable-libopencore-amrnb --enable-libopencore-amrwb --enable-libopenh264 --enable-libopenjpeg --enable-libopenmpt --enable-librav1e --enable-librubberband --disable-schannel --enable-sdl2 --enable-libsnappy --enable-libsrt --enable-libsvtav1 --enable-libtwolame --enable-libuavs3d --enable-libdrm --enable-vaapi --enable-libvidstab --enable-libvvenc --enable-whisper --enable-libx264 --enable-libx265 --enable-libxavs2 --enable-libxvid --enable-libzimg --enable-libzvbi --extra-cflags=-DLIBTWOLAME_STATIC --extra-cxxflags= --extra-libs='-lgomp -ldl' --extra-ldflags=-pthread --extra-ldexeflags=-pie --cc=x86_64-ffbuild-linux-gnu-gcc --cxx=x86_64-ffbuild-linux-gnu-g++ --ar=x86_64-ffbuild-linux-gnu-gcc-ar --ranlib=x86_64-ffbuild-linux-gnu-gcc-ranlib --nm=x86_64-ffbuild-linux-gnu-gcc-nm --extra-version=20250921\n",
      "  libavutil      60. 13.100 / 60. 13.100\n",
      "  libavcodec     62. 15.100 / 62. 15.100\n",
      "  libavformat    62.  6.100 / 62.  6.100\n",
      "  libavdevice    62.  2.100 / 62.  2.100\n",
      "  libavfilter    11.  9.100 / 11.  9.100\n",
      "  libswscale      9.  3.100 /  9.  3.100\n",
      "  libswresample   6.  2.100 /  6.  2.100\n",
      "[mov,mp4,m4a,3gp,3g2,mj2 @ 0x5564177205c0] Format mov,mp4,m4a,3gp,3g2,mj2 detected only with low score of 1, misdetection possible!\n",
      "[mov,mp4,m4a,3gp,3g2,mj2 @ 0x5564177205c0] moov atom not found\n",
      "[in#0 @ 0x556417716f40] Error opening input: Invalid data found when processing input\n",
      "Error opening input file /home/aparnabg/orcd/scratch/bidsdata/final_bids-dataset/sourcedata/sub-S7F0B6H3A3/ses-02/video/sub-S7F0B6H3A3_ses-02_task-unknown_run-01_video..MOV.\n",
      "Error opening input files: Invalid data found when processing input\n",
      ": 1\n",
      "  FFmpeg conversion failed: ffmpeg version N-121159-g0bd5a7d371-20250921 Copyright (c) 2000-2025 the FFmpeg developers\n",
      "  built with gcc 15.2.0 (crosstool-NG 1.28.0.1_403899e)\n",
      "  configuration: --prefix=/ffbuild/prefix --pkg-config-flags=--static --pkg-config=pkg-config --cross-prefix=x86_64-ffbuild-linux-gnu- --arch=x86_64 --target-os=linux --enable-gpl --enable-version3 --disable-debug --enable-iconv --enable-zlib --enable-libxml2 --enable-libsoxr --enable-openssl --enable-libvmaf --enable-fontconfig --enable-libharfbuzz --enable-libfreetype --enable-libfribidi --enable-vulkan --enable-libshaderc --enable-libvorbis --enable-libxcb --enable-xlib --enable-libpulse --enable-opencl --enable-gmp --enable-lzma --enable-amf --enable-libaom --enable-libaribb24 --enable-avisynth --enable-chromaprint --enable-libdav1d --enable-libdavs2 --enable-libdvdread --enable-libdvdnav --disable-libfdk-aac --enable-ffnvcodec --enable-cuda-llvm --enable-frei0r --enable-libgme --enable-libkvazaar --enable-libaribcaption --enable-libass --enable-libbluray --enable-libjxl --enable-libmp3lame --enable-libopus --enable-libplacebo --enable-librist --enable-libssh --enable-libtheora --enable-libvpx --enable-libwebp --enable-libzmq --enable-lv2 --enable-libvpl --enable-openal --enable-liboapv --enable-libopencore-amrnb --enable-libopencore-amrwb --enable-libopenh264 --enable-libopenjpeg --enable-libopenmpt --enable-librav1e --enable-librubberband --disable-schannel --enable-sdl2 --enable-libsnappy --enable-libsrt --enable-libsvtav1 --enable-libtwolame --enable-libuavs3d --enable-libdrm --enable-vaapi --enable-libvidstab --enable-libvvenc --enable-whisper --enable-libx264 --enable-libx265 --enable-libxavs2 --enable-libxvid --enable-libzimg --enable-libzvbi --extra-cflags=-DLIBTWOLAME_STATIC --extra-cxxflags= --extra-libs='-lgomp -ldl' --extra-ldflags=-pthread --extra-ldexeflags=-pie --cc=x86_64-ffbuild-linux-gnu-gcc --cxx=x86_64-ffbuild-linux-gnu-g++ --ar=x86_64-ffbuild-linux-gnu-gcc-ar --ranlib=x86_64-ffbuild-linux-gnu-gcc-ranlib --nm=x86_64-ffbuild-linux-gnu-gcc-nm --extra-version=20250921\n",
      "  libavutil      60. 13.100 / 60. 13.100\n",
      "  libavcodec     62. 15.100 / 62. 15.100\n",
      "  libavformat    62.  6.100 / 62.  6.100\n",
      "  libavdevice    62.  2.100 / 62.  2.100\n",
      "  libavfilter    11.  9.100 / 11.  9.100\n",
      "  libswscale      9.  3.100 /  9.  3.100\n",
      "  libswresample   6.  2.100 /  6.  2.100\n",
      "[mov,mp4,m4a,3gp,3g2,mj2 @ 0x55bf4343e5c0] Format mov,mp4,m4a,3gp,3g2,mj2 detected only with low score of 1, misdetection possible!\n",
      "[mov,mp4,m4a,3gp,3g2,mj2 @ 0x55bf4343e5c0] moov atom not found\n",
      "[in#0 @ 0x55bf43434f40] Error opening input: Invalid data found when processing input\n",
      "Error opening input file /home/aparnabg/orcd/scratch/bidsdata/final_bids-dataset/sourcedata/sub-S7F0B6H3A3/ses-02/video/sub-S7F0B6H3A3_ses-02_task-unknown_run-01_video..MOV.\n",
      "Error opening input files: Invalid data found when processing input\n",
      ": 1\n",
      "  FFmpeg conversion failed: ffmpeg version N-121159-g0bd5a7d371-20250921 Copyright (c) 2000-2025 the FFmpeg developers\n",
      "  built with gcc 15.2.0 (crosstool-NG 1.28.0.1_403899e)\n",
      "  configuration: --prefix=/ffbuild/prefix --pkg-config-flags=--static --pkg-config=pkg-config --cross-prefix=x86_64-ffbuild-linux-gnu- --arch=x86_64 --target-os=linux --enable-gpl --enable-version3 --disable-debug --enable-iconv --enable-zlib --enable-libxml2 --enable-libsoxr --enable-openssl --enable-libvmaf --enable-fontconfig --enable-libharfbuzz --enable-libfreetype --enable-libfribidi --enable-vulkan --enable-libshaderc --enable-libvorbis --enable-libxcb --enable-xlib --enable-libpulse --enable-opencl --enable-gmp --enable-lzma --enable-amf --enable-libaom --enable-libaribb24 --enable-avisynth --enable-chromaprint --enable-libdav1d --enable-libdavs2 --enable-libdvdread --enable-libdvdnav --disable-libfdk-aac --enable-ffnvcodec --enable-cuda-llvm --enable-frei0r --enable-libgme --enable-libkvazaar --enable-libaribcaption --enable-libass --enable-libbluray --enable-libjxl --enable-libmp3lame --enable-libopus --enable-libplacebo --enable-librist --enable-libssh --enable-libtheora --enable-libvpx --enable-libwebp --enable-libzmq --enable-lv2 --enable-libvpl --enable-openal --enable-liboapv --enable-libopencore-amrnb --enable-libopencore-amrwb --enable-libopenh264 --enable-libopenjpeg --enable-libopenmpt --enable-librav1e --enable-librubberband --disable-schannel --enable-sdl2 --enable-libsnappy --enable-libsrt --enable-libsvtav1 --enable-libtwolame --enable-libuavs3d --enable-libdrm --enable-vaapi --enable-libvidstab --enable-libvvenc --enable-whisper --enable-libx264 --enable-libx265 --enable-libxavs2 --enable-libxvid --enable-libzimg --enable-libzvbi --extra-cflags=-DLIBTWOLAME_STATIC --extra-cxxflags= --extra-libs='-lgomp -ldl' --extra-ldflags=-pthread --extra-ldexeflags=-pie --cc=x86_64-ffbuild-linux-gnu-gcc --cxx=x86_64-ffbuild-linux-gnu-g++ --ar=x86_64-ffbuild-linux-gnu-gcc-ar --ranlib=x86_64-ffbuild-linux-gnu-gcc-ranlib --nm=x86_64-ffbuild-linux-gnu-gcc-nm --extra-version=20250921\n",
      "  libavutil      60. 13.100 / 60. 13.100\n",
      "  libavcodec     62. 15.100 / 62. 15.100\n",
      "  libavformat    62.  6.100 / 62.  6.100\n",
      "  libavdevice    62.  2.100 / 62.  2.100\n",
      "  libavfilter    11.  9.100 / 11.  9.100\n",
      "  libswscale      9.  3.100 /  9.  3.100\n",
      "  libswresample   6.  2.100 /  6.  2.100\n",
      "[mov,mp4,m4a,3gp,3g2,mj2 @ 0x562269a195c0] Format mov,mp4,m4a,3gp,3g2,mj2 detected only with low score of 1, misdetection possible!\n",
      "[mov,mp4,m4a,3gp,3g2,mj2 @ 0x562269a195c0] moov atom not found\n",
      "[in#0 @ 0x562269a0ff40] Error opening input: Invalid data found when processing input\n",
      "Error opening input file /home/aparnabg/orcd/scratch/bidsdata/final_bids-dataset/sourcedata/sub-G3D3S2N7W8/ses-02/video/sub-G3D3S2N7W8_ses-02_task-unknown_run-01_video..MOV.\n",
      "Error opening input files: Invalid data found when processing input\n",
      ": 1\n",
      "  FFmpeg conversion failed: ffmpeg version N-121159-g0bd5a7d371-20250921 Copyright (c) 2000-2025 the FFmpeg developers\n",
      "  built with gcc 15.2.0 (crosstool-NG 1.28.0.1_403899e)\n",
      "  configuration: --prefix=/ffbuild/prefix --pkg-config-flags=--static --pkg-config=pkg-config --cross-prefix=x86_64-ffbuild-linux-gnu- --arch=x86_64 --target-os=linux --enable-gpl --enable-version3 --disable-debug --enable-iconv --enable-zlib --enable-libxml2 --enable-libsoxr --enable-openssl --enable-libvmaf --enable-fontconfig --enable-libharfbuzz --enable-libfreetype --enable-libfribidi --enable-vulkan --enable-libshaderc --enable-libvorbis --enable-libxcb --enable-xlib --enable-libpulse --enable-opencl --enable-gmp --enable-lzma --enable-amf --enable-libaom --enable-libaribb24 --enable-avisynth --enable-chromaprint --enable-libdav1d --enable-libdavs2 --enable-libdvdread --enable-libdvdnav --disable-libfdk-aac --enable-ffnvcodec --enable-cuda-llvm --enable-frei0r --enable-libgme --enable-libkvazaar --enable-libaribcaption --enable-libass --enable-libbluray --enable-libjxl --enable-libmp3lame --enable-libopus --enable-libplacebo --enable-librist --enable-libssh --enable-libtheora --enable-libvpx --enable-libwebp --enable-libzmq --enable-lv2 --enable-libvpl --enable-openal --enable-liboapv --enable-libopencore-amrnb --enable-libopencore-amrwb --enable-libopenh264 --enable-libopenjpeg --enable-libopenmpt --enable-librav1e --enable-librubberband --disable-schannel --enable-sdl2 --enable-libsnappy --enable-libsrt --enable-libsvtav1 --enable-libtwolame --enable-libuavs3d --enable-libdrm --enable-vaapi --enable-libvidstab --enable-libvvenc --enable-whisper --enable-libx264 --enable-libx265 --enable-libxavs2 --enable-libxvid --enable-libzimg --enable-libzvbi --extra-cflags=-DLIBTWOLAME_STATIC --extra-cxxflags= --extra-libs='-lgomp -ldl' --extra-ldflags=-pthread --extra-ldexeflags=-pie --cc=x86_64-ffbuild-linux-gnu-gcc --cxx=x86_64-ffbuild-linux-gnu-g++ --ar=x86_64-ffbuild-linux-gnu-gcc-ar --ranlib=x86_64-ffbuild-linux-gnu-gcc-ranlib --nm=x86_64-ffbuild-linux-gnu-gcc-nm --extra-version=20250921\n",
      "  libavutil      60. 13.100 / 60. 13.100\n",
      "  libavcodec     62. 15.100 / 62. 15.100\n",
      "  libavformat    62.  6.100 / 62.  6.100\n",
      "  libavdevice    62.  2.100 / 62.  2.100\n",
      "  libavfilter    11.  9.100 / 11.  9.100\n",
      "  libswscale      9.  3.100 /  9.  3.100\n",
      "  libswresample   6.  2.100 /  6.  2.100\n",
      "[mov,mp4,m4a,3gp,3g2,mj2 @ 0x5624281205c0] Format mov,mp4,m4a,3gp,3g2,mj2 detected only with low score of 1, misdetection possible!\n",
      "[mov,mp4,m4a,3gp,3g2,mj2 @ 0x5624281205c0] moov atom not found\n",
      "[in#0 @ 0x562428116f40] Error opening input: Invalid data found when processing input\n",
      "Error opening input file /home/aparnabg/orcd/scratch/bidsdata/final_bids-dataset/sourcedata/sub-S7F0B6H3A3/ses-02/video/sub-S7F0B6H3A3_ses-02_task-unknown_run-01_video..MOV.\n",
      "Error opening input files: Invalid data found when processing input\n",
      ": 1\n",
      "  FFmpeg conversion failed: ffmpeg version N-121159-g0bd5a7d371-20250921 Copyright (c) 2000-2025 the FFmpeg developers\n",
      "  built with gcc 15.2.0 (crosstool-NG 1.28.0.1_403899e)\n",
      "  configuration: --prefix=/ffbuild/prefix --pkg-config-flags=--static --pkg-config=pkg-config --cross-prefix=x86_64-ffbuild-linux-gnu- --arch=x86_64 --target-os=linux --enable-gpl --enable-version3 --disable-debug --enable-iconv --enable-zlib --enable-libxml2 --enable-libsoxr --enable-openssl --enable-libvmaf --enable-fontconfig --enable-libharfbuzz --enable-libfreetype --enable-libfribidi --enable-vulkan --enable-libshaderc --enable-libvorbis --enable-libxcb --enable-xlib --enable-libpulse --enable-opencl --enable-gmp --enable-lzma --enable-amf --enable-libaom --enable-libaribb24 --enable-avisynth --enable-chromaprint --enable-libdav1d --enable-libdavs2 --enable-libdvdread --enable-libdvdnav --disable-libfdk-aac --enable-ffnvcodec --enable-cuda-llvm --enable-frei0r --enable-libgme --enable-libkvazaar --enable-libaribcaption --enable-libass --enable-libbluray --enable-libjxl --enable-libmp3lame --enable-libopus --enable-libplacebo --enable-librist --enable-libssh --enable-libtheora --enable-libvpx --enable-libwebp --enable-libzmq --enable-lv2 --enable-libvpl --enable-openal --enable-liboapv --enable-libopencore-amrnb --enable-libopencore-amrwb --enable-libopenh264 --enable-libopenjpeg --enable-libopenmpt --enable-librav1e --enable-librubberband --disable-schannel --enable-sdl2 --enable-libsnappy --enable-libsrt --enable-libsvtav1 --enable-libtwolame --enable-libuavs3d --enable-libdrm --enable-vaapi --enable-libvidstab --enable-libvvenc --enable-whisper --enable-libx264 --enable-libx265 --enable-libxavs2 --enable-libxvid --enable-libzimg --enable-libzvbi --extra-cflags=-DLIBTWOLAME_STATIC --extra-cxxflags= --extra-libs='-lgomp -ldl' --extra-ldflags=-pthread --extra-ldexeflags=-pie --cc=x86_64-ffbuild-linux-gnu-gcc --cxx=x86_64-ffbuild-linux-gnu-g++ --ar=x86_64-ffbuild-linux-gnu-gcc-ar --ranlib=x86_64-ffbuild-linux-gnu-gcc-ranlib --nm=x86_64-ffbuild-linux-gnu-gcc-nm --extra-version=20250921\n",
      "  libavutil      60. 13.100 / 60. 13.100\n",
      "  libavcodec     62. 15.100 / 62. 15.100\n",
      "  libavformat    62.  6.100 / 62.  6.100\n",
      "  libavdevice    62.  2.100 / 62.  2.100\n",
      "  libavfilter    11.  9.100 / 11.  9.100\n",
      "  libswscale      9.  3.100 /  9.  3.100\n",
      "  libswresample   6.  2.100 /  6.  2.100\n",
      "[mov,mp4,m4a,3gp,3g2,mj2 @ 0x564ce80415c0] Format mov,mp4,m4a,3gp,3g2,mj2 detected only with low score of 1, misdetection possible!\n",
      "[mov,mp4,m4a,3gp,3g2,mj2 @ 0x564ce80415c0] moov atom not found\n",
      "[in#0 @ 0x564ce8037f40] Error opening input: Invalid data found when processing input\n",
      "Error opening input file /home/aparnabg/orcd/scratch/bidsdata/final_bids-dataset/sourcedata/sub-K6O1J5K7Z0/ses-01/video/sub-K6O1J5K7Z0_ses-01_task-unknown_run-01_video..mov.\n",
      "Error opening input files: Invalid data found when processing input\n",
      ": 1\n",
      "  Unreadable or unsupported video format: 2\n"
     ]
    }
   ],
   "source": [
    "import json\n",
    "import os\n",
    "import pandas as pd\n",
    "\n",
    "# paths\n",
    "BASE_DIR = \"/home/aparnabg/orcd/scratch/bidsdata\"\n",
    "BIDS_ROOT = \"/home/aparnabg/orcd/scratch/bidsdata/final_bids-dataset\"\n",
    "\n",
    "def merge_logs():\n",
    "    all_processed, all_failed = [], []\n",
    "    task_dirs = sorted(\n",
    "        int(item) for item in os.listdir(BASE_DIR)\n",
    "        if item.isdigit() and os.path.isdir(os.path.join(BASE_DIR, item))\n",
    "    )\n",
    "    \n",
    "    for task_id in task_dirs:\n",
    "        task_dir = os.path.join(BASE_DIR, str(task_id))\n",
    "        processed_file = os.path.join(task_dir, \"processing_log.json\")\n",
    "        failed_file = os.path.join(task_dir, \"not_processed.json\")\n",
    "\n",
    "        if os.path.exists(processed_file):\n",
    "            with open(processed_file, 'r') as f:\n",
    "                all_processed.extend(json.load(f))\n",
    "        \n",
    "        if os.path.exists(failed_file):\n",
    "            with open(failed_file, 'r') as f:\n",
    "                all_failed.extend(json.load(f))\n",
    "    \n",
    "    return all_processed, all_failed\n",
    "\n",
    "processed_data, failed_data = merge_logs()\n",
    "\n",
    "# Save all logs\n",
    "with open(os.path.join(BASE_DIR, \"all_processing_log.json\"), 'w') as f:\n",
    "    json.dump(processed_data, f, indent=2, default=str)\n",
    "\n",
    "with open(os.path.join(BASE_DIR, \"all_not_processed.json\"), 'w') as f:\n",
    "    json.dump(failed_data, f, indent=2, default=str)\n",
    "\n",
    "# Create participants files\n",
    "if processed_data:\n",
    "    participant_ids = {\n",
    "        entry['participant_id'] for entry in processed_data if 'participant_id' in entry\n",
    "    }\n",
    "\n",
    "    participants_data = [\n",
    "        {\"participant_id\": f\"sub-{pid}\", \"age\": \"n/a\", \"validity\": \"n/a\"}\n",
    "        for pid in sorted(participant_ids)\n",
    "    ]\n",
    "    \n",
    "    pd.DataFrame(participants_data).to_csv(\n",
    "        os.path.join(BIDS_ROOT, \"participants.tsv\"), \n",
    "        sep='\\t', index=False, na_rep='n/a'\n",
    "    )\n",
    "    \n",
    "    participants_json = {\n",
    "        \"participant_id\": {\"Description\": \"Unique participant identifier\"},\n",
    "        \"age\": {\"Description\": \"Age information\", \"Units\": \"months\"}, \n",
    "        \"validity\": {\"Description\": \"Data validity information\"}\n",
    "    }\n",
    "    \n",
    "    with open(os.path.join(BIDS_ROOT, \"participants.json\"), 'w') as f:\n",
    "        json.dump(participants_json, f, indent=2)\n",
    "\n",
    "# Summary\n",
    "print(f\"Total processed: {len(processed_data)}\")\n",
    "print(f\"Total failed: {len(failed_data)}\")\n",
    "\n",
    "if processed_data:\n",
    "    task_counts = {}\n",
    "    for entry in processed_data:\n",
    "        task = entry.get('task_label', 'unknown')\n",
    "        task_counts[task] = task_counts.get(task, 0) + 1\n",
    "    \n",
    "    print(\"\\nTasks processed:\")\n",
    "    for task, count in sorted(task_counts.items()):\n",
    "        print(f\"  {task}: {count}\")\n",
    "    \n",
    "    session_counts = {}\n",
    "    for entry in processed_data:\n",
    "        session = entry.get('session_id', 'unknown')\n",
    "        session_counts[session] = session_counts.get(session, 0) + 1\n",
    "    \n",
    "    print(\"\\nSessions:\")\n",
    "    for session, count in sorted(session_counts.items()):\n",
    "        print(f\"  Session {session}: {count}\")\n",
    "\n",
    "if failed_data:\n",
    "    error_counts = {}\n",
    "    for entry in failed_data:\n",
    "        error = entry.get('error', 'Unknown')\n",
    "        error_counts[error] = error_counts.get(error, 0) + 1\n",
    "    \n",
    "    print(\"\\nFailed videos by error type:\")\n",
    "    for error, count in sorted(error_counts.items()):\n",
    "        print(f\"  {error}: {count}\")\n"
   ]
  }
 ],
 "metadata": {
  "kernelspec": {
   "display_name": "Python 3 (ipykernel)",
   "language": "python",
   "name": "python3"
  },
  "language_info": {
   "codemirror_mode": {
    "name": "ipython",
    "version": 3
   },
   "file_extension": ".py",
   "mimetype": "text/x-python",
   "name": "python",
   "nbconvert_exporter": "python",
   "pygments_lexer": "ipython3",
   "version": "3.7.4"
  }
 },
 "nbformat": 4,
 "nbformat_minor": 5
}
